<svg xmlns="http://www.w3.org/2000/svg" width="900" height="900" viewBox="0 0 900 900">
  <defs>
    <linearGradient id="bg" x1="0" y1="0" x2="1" y2="1">
      <stop offset="0" stop-color="#F7F4EE"/>
      <stop offset="1" stop-color="#EFEAE0"/>
    </linearGradient>
  </defs>
  <rect width="900" height="900" fill="url(#bg)"/>
  <g stroke="#0B1D33" stroke-opacity="0.18" fill="none" stroke-width="3" stroke-linecap="round">
    <path d="M430 780 C420 650, 420 520, 452 380 C470 300, 530 250, 592 220" />
    <path d="M452 520 C370 470, 300 420, 242 340" />
    <path d="M472 470 C560 435, 645 390, 720 330" />
    <path d="M452 390 C380 360, 330 320, 292 270" />
    <path d="M500 360 C560 350, 620 330, 680 290" />
    <path d="M420 600 C350 590, 290 560, 240 520" />
    <path d="M488 620 C560 610, 630 580, 700 530" />
  </g>
  <g fill="#C7A44A" fill-opacity="0.12" stroke="#C7A44A" stroke-opacity="0.22" stroke-width="2">
    <ellipse cx="242" cy="340" rx="56" ry="34"/>
    <ellipse cx="720" cy="330" rx="62" ry="38"/>
    <ellipse cx="292" cy="270" rx="48" ry="30"/>
    <ellipse cx="680" cy="290" rx="55" ry="34"/>
    <ellipse cx="240" cy="520" rx="64" ry="40"/>
    <ellipse cx="700" cy="530" rx="66" ry="42"/>
  </g>
</svg>
