<svg xmlns="http://www.w3.org/2000/svg" width="1600" height="600" viewBox="0 0 1600 600">
  <defs>
    <linearGradient id="g" x1="0" y1="0" x2="1" y2="1">
      <stop offset="0" stop-color="#0B1D33"/>
      <stop offset="1" stop-color="#102947"/>
    </linearGradient>
    <radialGradient id="glow" cx="30%" cy="25%" r="65%">
      <stop offset="0" stop-color="#C7A44A" stop-opacity="0.35"/>
      <stop offset="1" stop-color="#C7A44A" stop-opacity="0"/>
    </radialGradient>
    <pattern id="grain" width="120" height="120" patternUnits="userSpaceOnUse">
      <circle cx="10" cy="18" r="1" fill="#F7F4EE" opacity="0.08"/>
      <circle cx="58" cy="62" r="1.2" fill="#F7F4EE" opacity="0.06"/>
      <circle cx="96" cy="22" r="0.9" fill="#F7F4EE" opacity="0.05"/>
      <circle cx="22" cy="98" r="1.1" fill="#F7F4EE" opacity="0.06"/>
      <circle cx="100" cy="96" r="0.8" fill="#F7F4EE" opacity="0.05"/>
    </pattern>
    <filter id="soft" x="-20%" y="-20%" width="140%" height="140%">
      <feGaussianBlur stdDeviation="8" result="b"/>
      <feColorMatrix in="b" type="matrix" values="
        1 0 0 0 0
        0 1 0 0 0
        0 0 1 0 0
        0 0 0 .9 0" result="c"/>
      <feMerge>
        <feMergeNode in="c"/>
        <feMergeNode in="SourceGraphic"/>
      </feMerge>
    </filter>
  </defs>

  <rect width="1600" height="600" fill="url(#g)"/>
  <rect width="1600" height="600" fill="url(#glow)"/>
  <rect width="1600" height="600" fill="url(#grain)"/>

  <!-- gold filigree lines -->
  <path d="M70,480 C260,380 340,520 520,430 C680,360 760,450 910,410 C1060,370 1160,420 1300,360"
        fill="none" stroke="#C7A44A" stroke-opacity="0.45" stroke-width="2"/>
  <path d="M110,520 C290,430 360,560 560,470 C740,390 820,510 980,465 C1120,425 1210,470 1460,390"
        fill="none" stroke="#C7A44A" stroke-opacity="0.25" stroke-width="2"/>

  <!-- molecule-ish motif -->
  <g transform="translate(1040 130)" stroke="#F7F4EE" stroke-opacity="0.55" fill="none" filter="url(#soft)">
    <circle cx="0" cy="70" r="12" fill="#C7A44A" fill-opacity="0.55" stroke="none"/>
    <circle cx="120" cy="0" r="14" fill="#C7A44A" fill-opacity="0.45" stroke="none"/>
    <circle cx="210" cy="120" r="10" fill="#C7A44A" fill-opacity="0.40" stroke="none"/>
    <circle cx="92" cy="170" r="11" fill="#C7A44A" fill-opacity="0.35" stroke="none"/>
    <path d="M0,70 L120,0 L210,120 L92,170 Z" stroke-width="2"/>
    <path d="M120,0 L92,170" stroke-width="2" stroke-opacity="0.35"/>
  </g>

  <!-- parchment block -->
  <g transform="translate(140 120)">
    <rect x="0" y="0" width="560" height="320" rx="26" fill="#F7F4EE" fill-opacity="0.08" stroke="#F7F4EE" stroke-opacity="0.18"/>
    <path d="M70 80 C110 60, 160 60, 200 80" stroke="#F7F4EE" stroke-opacity="0.25" stroke-width="3" fill="none"/>
    <path d="M70 130 C150 105, 210 110, 290 130" stroke="#F7F4EE" stroke-opacity="0.22" stroke-width="3" fill="none"/>
    <path d="M70 180 C130 165, 205 160, 330 180" stroke="#F7F4EE" stroke-opacity="0.18" stroke-width="3" fill="none"/>
    <path d="M70 230 C160 215, 240 215, 420 230" stroke="#F7F4EE" stroke-opacity="0.16" stroke-width="3" fill="none"/>
  </g>
</svg>
